<svg xmlns="http://www.w3.org/2000/svg" viewBox="0 0 88 88"><title>Artboard-9</title><g id="Stopwatch"><path d="M79,52A25.0281,25.0281,0,0,0,54,27H28a1,1,0,0,0,0,2H54a23,23,0,0,1,0,46H27a1,1,0,0,0,0,2H54A25.0281,25.0281,0,0,0,79,52Z" style="fill:#1d1b1e"/><path d="M79.1558,33.9171l3.8325-3.84a1,1,0,0,0-.001-1.4136l-5.65-5.65a.9994.9994,0,0,0-1.4131-.001l-3.8406,3.8327A30.8441,30.8441,0,0,0,60,21.588V15h4a2.0023,2.0023,0,0,0,2-2V7a2.0023,2.0023,0,0,0-2-2H44a2.0023,2.0023,0,0,0-2,2v6a2.0023,2.0023,0,0,0,2,2h4v6H34a1,1,0,0,0,0,2H54a29,29,0,0,1,0,58H33a1,1,0,0,0,0,2H54A30.975,30.975,0,0,0,79.1558,33.9171ZM73.6934,28.063l2.9355-2.93,4.2383,4.2378-2.9307,2.936A36.0149,36.0149,0,0,0,73.6934,28.063ZM44,7H64v6H44Zm6,14V15h8v6.2627A33.4379,33.4379,0,0,0,54,21Z" style="fill:#1d1b1e"/><path d="M33,52a1,1,0,0,0-1-1H4a1,1,0,0,0,0,2H32A1,1,0,0,0,33,52Z" style="fill:#1d1b1e"/><path d="M36,58a1,1,0,0,0-1-1H10a1,1,0,0,0,0,2H35A1,1,0,0,0,36,58Z" style="fill:#1d1b1e"/><path d="M39,64a1,1,0,0,0-1-1H16a1,1,0,0,0,0,2H38A1,1,0,0,0,39,64Z" style="fill:#1d1b1e"/><path d="M43,70a1,1,0,0,0-1-1H22a1,1,0,0,0,0,2H42A1,1,0,0,0,43,70Z" style="fill:#1d1b1e"/><path d="M10,47H35a1,1,0,0,0,0-2H10a1,1,0,0,0,0,2Z" style="fill:#1d1b1e"/><path d="M16,41H38a1,1,0,0,0,0-2H16a1,1,0,0,0,0,2Z" style="fill:#1d1b1e"/><path d="M22,35H42a1,1,0,0,0,0-2H22a1,1,0,0,0,0,2Z" style="fill:#1d1b1e"/><path d="M55,34V32a1,1,0,0,0-2,0v2a1,1,0,0,0,2,0Z" style="fill:#1d1b1e"/><path d="M53,70v2a1,1,0,0,0,2,0V70a1,1,0,0,0-2,0Z" style="fill:#1d1b1e"/><path d="M62.5,66.7222a1,1,0,0,0-.3662,1.3662l1,1.7319a1,1,0,1,0,1.7324-1l-1-1.7319A1,1,0,0,0,62.5,66.7222Z" style="fill:#1d1b1e"/><path d="M69.0889,61.8657l1.7314,1a1,1,0,1,0,1-1.7314l-1.7314-1a1,1,0,1,0-1,1.7314Z" style="fill:#1d1b1e"/><path d="M71,52a1,1,0,0,0,1,1h2a1,1,0,0,0,0-2H72A1,1,0,0,0,71,52Z" style="fill:#1d1b1e"/><path d="M70.82,41.1343l-1.7314,1a1,1,0,1,0,1,1.7314l1.7314-1a1,1,0,1,0-1-1.7314Z" style="fill:#1d1b1e"/><path d="M47.2549,55.9009a.9992.9992,0,0,0,1.3662.3642L51.1505,54.8a3.973,3.973,0,0,0,6.6886-3.8608l8.2429-4.7586a1,1,0,0,0-1-1.7325L56.85,49.2006a3.9729,3.9729,0,0,0-6.6887,3.8617l-2.5423,1.4724A.9987.9987,0,0,0,47.2549,55.9009ZM54,50a2,2,0,1,1-2,2A2.0023,2.0023,0,0,1,54,50Z" style="fill:#1d1b1e"/><path d="M63.8662,36.9116l1-1.7319a1,1,0,1,0-1.7324-1l-1,1.7319a1,1,0,1,0,1.7324,1Z" style="fill:#1d1b1e"/></g></svg>